<svg aria-hidden="true" style="position: absolute; width: 0; height: 0; overflow: hidden;" version="1.1" xmlns="http://www.w3.org/2000/svg" xmlns:xlink="http://www.w3.org/1999/xlink">
<defs>
<symbol id="MAGNIFYING-GLASS" viewBox="0 0 32 32">
<title>MAGNIFYING-GLASS</title>
<path d="M29.307 25.573c0.478 0.478 0.773 1.138 0.773 1.867 0 1.458-1.182 2.641-2.641 2.641-0.729 0-1.389-0.296-1.867-0.773l-7.738-7.738c-1.571 0.928-3.398 1.47-5.355 1.47-5.832 0-10.56-4.728-10.56-10.56s4.728-10.56 10.56-10.56c5.832 0 10.56 4.728 10.56 10.56v0c-0.001 1.976-0.548 3.825-1.498 5.402l0.026-0.047 7.739 7.738zM12.48 4.558c-4.374 0-7.92 3.546-7.92 7.92s3.546 7.92 7.92 7.92v0c4.374 0 7.92-3.546 7.92-7.92s-3.546-7.92-7.92-7.92v0z"></path>
</symbol>

<symbol id="SHOPPING-CART" viewBox="0 0 38 32">
<title>SHOPPING-CART</title>
<path d="M35.249 8.777h0.002l-4.659 10.353c-0.234 0.514-0.727 0.873-1.307 0.913l-0.005 0-13.417 0.894 0.776 2.214h14.609c1.715 0 3.106 1.391 3.106 3.106s-1.391 3.106-3.106 3.106c-1.715 0-3.106-1.391-3.106-3.106v0h-14.494c0 0.001 0 0.001 0 0.002 0 1.715-1.391 3.106-3.106 3.106s-3.106-1.391-3.106-3.106c0-1.715 1.391-3.106 3.106-3.106h2.805l-5.975-17.082h-3.558c-0.858 0-1.553-0.695-1.553-1.553s0.695-1.553 1.553-1.553v0h4.657c0.678 0 1.248 0.437 1.461 1.041h0.006l0.904 2.583h22.995c0.856 0.002 1.55 0.696 1.55 1.553 0 0.23-0.050 0.449-0.14 0.646l0.004-0.010zM11.927 9.694l2.872 8.201 13.344-0.89 3.29-7.311h-19.505z"></path>
</symbol>

<symbol id="ALARM" viewBox="0 0 32 32">
<title>ALARM</title>
<path d="M29.873 10.826c-1.528-3.497-4.261-6.23-7.663-7.721l-0.095-0.037c0.941-0.741 2.125-1.186 3.416-1.186 3.053 0 5.528 2.475 5.528 5.528v0c0 0.001 0 0.002 0 0.003 0 1.294-0.447 2.484-1.195 3.423l0.009-0.011zM29.647 16.941c0 3.625-1.423 6.911-3.73 9.355l1.91 1.909c0.243 0.251 0.393 0.593 0.393 0.971 0 0.771-0.625 1.396-1.396 1.396-0.377 0-0.72-0.15-0.971-0.393l0 0-2.052-2.050c-2.171 1.538-4.873 2.459-7.791 2.459-0.004 0-0.007 0-0.011 0h0.001c-0.003 0-0.007 0-0.011 0-2.912 0-5.61-0.917-7.821-2.478l0.043 0.029-2.036 2.036c-0.258 0.272-0.622 0.442-1.026 0.442-0.78 0-1.412-0.632-1.412-1.412 0-0.404 0.169-0.768 0.441-1.025l0.001-0.001 1.893-1.894c-2.299-2.443-3.719-5.725-3.719-9.344 0-7.537 6.11-13.647 13.647-13.647s13.647 6.11 13.647 13.647zM16 6.118c-5.977 0-10.824 4.845-10.824 10.824s4.846 10.824 10.824 10.824 10.824-4.847 10.824-10.824c0-5.978-4.846-10.824-10.824-10.824zM21.647 18.353h-5.647c-0.78 0-1.412-0.632-1.412-1.412v0-7.529c0-0.78 0.632-1.412 1.412-1.412s1.412 0.632 1.412 1.412v0 6.118h4.235c0.78 0 1.412 0.632 1.412 1.412s-0.632 1.412-1.412 1.412v0zM2.152 11.016c-0.755-0.948-1.211-2.163-1.211-3.484 0-0.001 0-0.002 0-0.003v0c0-3.119 2.528-5.647 5.647-5.647v0c1.318 0 2.527 0.455 3.488 1.211-3.572 1.56-6.363 4.352-7.886 7.826l-0.038 0.097z"></path>
</symbol>

<symbol id="BOOK-2" viewBox="0 0 33 32">
<title>BOOK-2</title>
<path d="M31.12 25.308l-13.62 5.635c-0.165 0.073-0.357 0.116-0.559 0.116s-0.394-0.043-0.568-0.119l0.009 0.004-13.619-5.635c-0.521-0.215-0.881-0.72-0.881-1.308 0-0 0-0 0-0v0-21.647c0.001-0.779 0.632-1.411 1.412-1.411 0.195 0 0.38 0.039 0.549 0.111l-0.009-0.003 0.003 0.001 0.012 0.005 13.093 5.416 13.108-5.423c0.159-0.068 0.345-0.107 0.539-0.107 0.78 0 1.412 0.632 1.412 1.412v0 21.647c0 0 0 0 0 0 0 0.588-0.359 1.092-0.871 1.304l-0.009 0.003zM15.529 8.943l-10.824-4.479v18.592l10.824 4.479v-18.591zM29.176 4.464l-10.824 4.48v18.591l10.824-4.48v-18.589zM20.593 10.95l5.176-2.353c0.167-0.075 0.362-0.119 0.567-0.119 0.78 0 1.412 0.632 1.412 1.412 0 0.561-0.328 1.046-0.802 1.274l-0.009 0.004-5.176 2.353c-0.167 0.075-0.362 0.119-0.567 0.119-0.78 0-1.412-0.632-1.412-1.412 0-0.561 0.328-1.046 0.802-1.274l0.009-0.004zM20.593 16.126l5.176-2.353c0.172-0.080 0.373-0.127 0.584-0.127 0.779 0 1.411 0.632 1.411 1.411 0 0 0 0 0 0.001v-0c0 0 0 0 0 0 0 0.568-0.336 1.058-0.82 1.282l-0.009 0.004-5.176 2.353c-0.162 0.070-0.35 0.111-0.548 0.111-0.78 0-1.412-0.632-1.412-1.412 0-0.554 0.319-1.034 0.784-1.265l0.008-0.004zM20.593 21.303l5.176-2.353c0.167-0.075 0.362-0.119 0.567-0.119 0.78 0 1.412 0.632 1.412 1.412 0 0.561-0.328 1.046-0.802 1.274l-0.009 0.004-5.176 2.353c-0.167 0.075-0.362 0.119-0.567 0.119-0.78 0-1.412-0.632-1.412-1.412 0-0.561 0.328-1.046 0.802-1.274l0.009-0.004zM7.529 8.471c0.208 0 0.406 0.045 0.584 0.126l5.176 2.353c0.478 0.233 0.801 0.715 0.801 1.273 0 0.78-0.632 1.412-1.412 1.412-0.201 0-0.392-0.042-0.565-0.118l0.009 0.004-5.176-2.353c-0.492-0.228-0.826-0.717-0.826-1.285 0-0.779 0.631-1.411 1.41-1.412h0zM7.529 13.647c0.208 0 0.406 0.045 0.584 0.126l5.176 2.353c0.515 0.218 0.87 0.719 0.87 1.304 0 0.78-0.632 1.412-1.412 1.412-0.228 0-0.443-0.054-0.633-0.15l0.008 0.004v0.001l-5.176-2.353c-0.492-0.228-0.826-0.717-0.826-1.285 0-0.779 0.631-1.411 1.41-1.412h0zM7.529 18.824c0.208 0 0.406 0.045 0.584 0.126l5.176 2.353c0.478 0.233 0.801 0.715 0.801 1.273 0 0.78-0.632 1.412-1.412 1.412-0.201 0-0.392-0.042-0.565-0.118l0.009 0.004-5.176-2.353c-0.492-0.228-0.826-0.717-0.826-1.285 0-0.779 0.631-1.411 1.41-1.412h0z"></path>
</symbol>

<symbol id="COMPUTER-_-OK" viewBox="0 0 35 32">
<title>COMPUTER-_-OK</title>
<path d="M32 25.806h-9.806v2.581l2.065 2.065v0.516h-13.419v-0.516l2.065-2.065v-2.581h-9.806c-0.855 0-1.548-0.693-1.548-1.548v0-20.645c0-0.855 0.693-1.548 1.548-1.548v0h28.903c0.855 0 1.548 0.693 1.548 1.548v0 20.645c0 0.855-0.693 1.548-1.548 1.548v0zM31.484 4.129h-27.871v17.548h27.871v-17.548zM14.452 11.355c0.427 0 0.815 0.173 1.094 0.453l0.97 0.97 3.035-3.035c0.282-0.292 0.677-0.473 1.114-0.473 0.855 0 1.548 0.693 1.548 1.548 0 0.437-0.181 0.832-0.472 1.113l-0 0-4.129 4.129c-0.28 0.281-0.667 0.456-1.095 0.456s-0.815-0.174-1.095-0.456l-2.065-2.065c-0.28-0.28-0.453-0.667-0.453-1.094 0-0.855 0.693-1.548 1.548-1.548h0z"></path>
</symbol>

<symbol id="HOME" viewBox="0 0 34 32">
<title>HOME</title>
<path d="M32.97 16.97c0 0.803-0.651 1.455-1.455 1.455v0c-0.383-0.001-0.732-0.15-0.99-0.394l0.001 0.001-0.003 0.004-13.069-13.068-13.039 13.039c-0.263 0.261-0.625 0.423-1.026 0.423-0.803 0-1.455-0.651-1.455-1.455 0-0.414 0.173-0.788 0.451-1.053l14.018-14.020c0.265-0.274 0.636-0.446 1.047-0.446h0.002c0.025 0 0.050 0 0.077 0.002h0.012c0.031 0.002 0.055 0.005 0.079 0.008l-0.009-0.001c0.356 0.039 0.673 0.206 0.905 0.454l5.725 5.721v-1.335c0-0.803 0.651-1.455 1.455-1.455s1.455 0.651 1.455 1.455v0 4.245l5.428 5.428-0.004 0.004c0.242 0.26 0.394 0.606 0.394 0.989zM30.061 19.394v10.182c0 0.803-0.651 1.455-1.455 1.455v0h-2.909v-11.636h-5.818v11.636h-13.576c-0.803 0-1.455-0.651-1.455-1.455v0-10.182l12.606-12.606 12.606 12.606zM15.030 19.394h-5.818v5.818h5.818v-5.818z"></path>
</symbol>

<symbol id="IMAGE" viewBox="0 0 34 32">
<title>IMAGE</title>
<path d="M30.588 31.059h-27.294c-0.78 0-1.412-0.632-1.412-1.412v0-27.294c0-0.78 0.632-1.412 1.412-1.412v0h27.294c0.78 0 1.412 0.632 1.412 1.412v0 27.294c0 0.78-0.632 1.412-1.412 1.412v0zM29.176 3.765h-24.471v24.471h24.471v-24.471zM8 5.176h5.176c0.78 0 1.412 0.632 1.412 1.412s-0.632 1.412-1.412 1.412v0h-4.235v4.235c0 0.78-0.632 1.412-1.412 1.412s-1.412-0.632-1.412-1.412v0-7.059h1.882zM6.118 19.765c0-0.78 0.632-1.412 1.412-1.412s1.412 0.632 1.412 1.412v0 4.235h4.235c0.78 0 1.412 0.632 1.412 1.412s-0.632 1.412-1.412 1.412v0h-7.059v-7.059zM20.706 5.176h7.059v7.059c0 0.78-0.632 1.412-1.412 1.412s-1.412-0.632-1.412-1.412v0-4.235h-4.235c-0.78 0-1.412-0.632-1.412-1.412s0.632-1.412 1.412-1.412v0zM20.706 24h4.235v-4.235c0-0.78 0.632-1.412 1.412-1.412s1.412 0.632 1.412 1.412v0 7.059h-7.059c-0.78 0-1.412-0.632-1.412-1.412s0.632-1.412 1.412-1.412v0z"></path>
</symbol>

<symbol id="LINE-GRAPH" viewBox="0 0 32 32">
<title>LINE-GRAPH</title>
<path d="M28.8 31.086h-26.514c-0.757 0-1.371-0.614-1.371-1.371v0-26.514c0-0.757 0.614-1.371 1.371-1.371v0h26.514c0.757 0 1.371 0.614 1.371 1.371v0 26.514c0 0.757-0.614 1.371-1.371 1.371v0zM27.429 4.571h-23.771v23.771h23.771v-23.771zM5.682 16.676v-0.002l3.657-2.284c0.203-0.127 0.451-0.203 0.715-0.203 0.001 0 0.002 0 0.002 0h-0c0.284 0 0.549 0.087 0.768 0.235l0.005-0.007 6.062 4.041 6.984-4.929c0.219-0.155 0.492-0.248 0.787-0.248 0.757 0 1.371 0.614 1.371 1.371 0 0.446-0.213 0.842-0.542 1.092l-0.003 0.002-7.771 5.486c-0.222 0.163-0.501 0.261-0.803 0.261-0.295 0-0.569-0.094-0.792-0.253l0.004 0.003-6.086-4.058-2.866 1.792c-0.202 0.124-0.446 0.197-0.708 0.197-0.757 0-1.371-0.614-1.371-1.371 0-0.464 0.231-0.875 0.584-1.123l0.004-0.003z"></path>
</symbol>

<symbol id="facebook" viewBox="0 0 17 32">
<title>facebook</title>
<path d="M14.444 2.426v4.546s-3.352-0.333-4.192 0.951c-0.459 0.702-0.186 2.759-0.227 4.235h4.447c-0.376 1.726-0.646 2.895-0.922 4.39h-3.549v14.129h-6.161v-14.073h-2.62v-4.444h2.592c0.132-3.251 0.182-6.471 1.798-8.11 1.814-1.843 3.545-1.622 8.833-1.622z"></path>
</symbol
>
<symbol id="instagram" viewBox="0 0 32 32">
<title>instagram</title>
<path d="M27.086 30.629h-21.943c-2.020 0-3.657-1.637-3.657-3.657v0-21.943c0-2.020 1.637-3.657 3.657-3.657v0h21.943c2.020 0 3.657 1.637 3.657 3.657v0 21.943c0 2.020-1.637 3.657-3.657 3.657v0zM16.114 10.331c-2.266 0.001-4.221 1.333-5.126 3.257l-0.015 0.035h-0.006l-0.025 0.062c-0.039 0.083-0.088 0.204-0.134 0.328l-0.013 0.039c-0.023 0.061-0.046 0.119-0.065 0.178-0.030 0.088-0.068 0.217-0.1 0.349l-0.008 0.039c-0.016 0.061-0.034 0.121-0.048 0.183-0.023 0.104-0.048 0.247-0.067 0.392l-0.003 0.029c-0.008 0.057-0.019 0.113-0.026 0.171-0.021 0.185-0.034 0.4-0.034 0.617 0 3.131 2.538 5.669 5.669 5.669s5.669-2.538 5.669-5.669c0-0.217-0.012-0.432-0.036-0.643l0.002 0.026c-0.006-0.058-0.017-0.114-0.025-0.171-0.022-0.174-0.047-0.317-0.076-0.458l0.007 0.037c-0.014-0.062-0.032-0.122-0.048-0.183-0.041-0.171-0.078-0.301-0.12-0.429l0.011 0.040c-0.019-0.059-0.043-0.118-0.065-0.178-0.058-0.162-0.107-0.283-0.161-0.401l0.014 0.036-0.025-0.064h-0.006c-0.92-1.958-2.875-3.289-5.14-3.29h-0zM27.451 6.126c0-0.808-0.655-1.463-1.463-1.463v0h-2.926c-0.808 0-1.463 0.655-1.463 1.463v2.926c0 0.808 0.655 1.463 1.463 1.463h2.926c0.808 0 1.463-0.655 1.463-1.463v0-2.926zM27.451 13.623h-2.697c0.204 0.713 0.321 1.531 0.321 2.377 0 4.948-4.012 8.96-8.96 8.96-0 0-0.001 0-0.001 0h0c-0 0-0.001 0-0.001 0-4.948 0-8.96-4.012-8.96-8.96 0-0.846 0.117-1.664 0.336-2.44l-0.015 0.063h-2.697v12.251c0 0.808 0.655 1.463 1.463 1.463h19.749c0.808 0 1.463-0.655 1.463-1.463v0-12.251z"></path>
</symbol>

<symbol id="pinterest" viewBox="0 0 25 32">
<title>pinterest</title>
<path d="M11.090 19.701c-0.23 0.919-0.462 1.882-0.703 2.825-0.237 0.929-0.447 1.871-0.792 2.726-0.573 1.414-1.3 2.781-2.254 3.885-0.634 0.736-0.5 0.441-0.691 0.403-0.146-0.031-0.158-0.173-0.188-0.381-0.154-1.123-0.049-2.422 0.009-3.686 0.066-1.438 0.369-2.634 0.65-3.829 0.534-2.278 1.044-4.51 1.583-6.802 0.035-0.152 0.132-0.404 0.099-0.491-0.245-0.637-0.404-1.208-0.473-1.876-0.023-0.195-0.036-0.421-0.036-0.651 0-0.531 0.069-1.046 0.199-1.536l-0.009 0.042c0.305-1.167 1.006-2.201 2.089-2.58 0.689-0.238 1.451-0.13 1.914 0.146 0.477 0.286 0.804 0.736 0.957 1.375 0.163 0.679 0.043 1.49-0.088 2.087-0.295 1.345-0.682 2.355-1.034 3.652-0.174 0.643-0.372 1.304-0.21 1.999 0.151 0.638 0.483 1.077 0.936 1.407 0.47 0.342 1.026 0.53 1.793 0.502 1.355-0.047 2.296-0.914 2.925-1.73 1.007-1.308 1.617-3.072 1.848-5.171 0.074-0.678 0.129-1.455 0.077-2.222-0.097-1.417-0.541-2.557-1.244-3.439-0.669-0.842-1.618-1.512-2.772-1.887-1.144-0.375-2.728-0.499-4.135-0.258-2.558 0.438-4.361 1.891-5.423 3.898-0.582 1.066-0.924 2.336-0.924 3.685 0 0.027 0 0.055 0 0.082l-0-0.004c0 1.159 0.287 2.058 0.748 2.759 0.147 0.222 0.362 0.405 0.505 0.659 0.204 0.36-0.031 0.895-0.132 1.284-0.121 0.469-0.132 1.117-0.681 1.128-0.227 0.004-0.512-0.161-0.704-0.268-1.44-0.796-2.314-2.243-2.673-4.12-0.104-0.537-0.163-1.155-0.163-1.786s0.059-1.249 0.173-1.848l-0.010 0.061c0.21-1.067 0.6-2.050 1.034-2.848 0.908-1.647 2.204-2.979 3.769-3.906l0.047-0.026c1.231-0.728 2.621-1.239 4.311-1.485 0.509-0.071 1.121-0.124 1.741-0.145l0.030-0.001c0.144-0.007 0.312-0.011 0.481-0.011 1.553 0 3.029 0.333 4.36 0.932l-0.067-0.027c1.291 0.577 2.385 1.377 3.281 2.36l0.007 0.008c0.925 1.010 1.598 2.185 2.024 3.651 0.223 0.764 0.439 1.58 0.439 2.524 0 0.947-0.2 1.78-0.34 2.613-0.523 3.121-2.007 5.673-4.235 7.126-0.557 0.369-1.199 0.673-1.884 0.879l-0.052 0.013c-0.736 0.214-1.576 0.375-2.475 0.312-0.81-0.047-1.557-0.278-2.213-0.65l0.025 0.013c-0.596-0.337-1.097-0.749-1.452-1.373z"></path>
</symbol>

<symbol id="twitter" viewBox="0 0 37 32">
<title>twitter</title>
<path d="M24.684 2.135c2.712-0.048 4.156 0.94 5.533 2.196 1.172-0.1 2.693-0.753 3.589-1.209l0.871-0.476c-0.512 1.383-1.205 2.467-2.272 3.288-0.237 0.181-0.472 0.428-0.769 0.544v0.017c1.52-0.015 2.773-0.701 3.964-1.073v0.017c-0.625 0.993-1.472 2.003-2.375 2.725l-1.093 0.868c0.020 1.609-0.024 3.145-0.324 4.497-1.749 7.86-6.384 13.196-13.72 15.483-2.633 0.82-6.889 1.157-9.907 0.408-1.497-0.371-2.849-0.791-4.117-1.345-0.78-0.339-1.431-0.681-2.054-1.063l0.071 0.041-0.615-0.373c0.68 0.020 1.477 0.208 2.237 0.084 0.689-0.111 1.364-0.081 2-0.22 1.584-0.348 2.991-0.808 4.201-1.517 0.588-0.344 1.48-0.747 1.897-1.243-0.787 0.013-1.5-0.169-2.084-0.375-2.267-0.8-3.584-2.271-4.443-4.48 0.687 0.076 2.664 0.253 3.127-0.136-0.864-0.048-1.695-0.548-2.289-0.92-1.823-1.14-3.308-3.052-3.297-5.995l0.717 0.34c0.459 0.193 0.924 0.296 1.469 0.409 0.231 0.048 0.693 0.183 0.957 0.084h-0.035c-0.352-0.409-0.927-0.683-1.28-1.124-1.171-1.453-2.267-3.688-1.573-6.352 0.195-0.694 0.451-1.3 0.773-1.863l-0.021 0.040 0.035 0.016c0.136 0.285 0.44 0.495 0.632 0.733 0.597 0.74 1.333 1.405 2.084 1.992 2.557 2 4.86 3.229 8.56 4.139 0.937 0.232 2.021 0.408 3.143 0.409-0.315-0.916-0.213-2.4 0.033-3.287 0.624-2.232 1.977-3.84 3.964-4.701 0.441-0.19 0.961-0.355 1.5-0.468l0.055-0.010 0.853-0.101z"></path>
</symbol>
</defs>
</svg>
